<?xml version="1.0" encoding="UTF-8" standalone="no"?>
<!-- Created with Inkscape (http://www.inkscape.org/) -->

<svg
   width="100.11271mm"
   height="43.016315mm"
   viewBox="0 0 100.11271 43.016315"
   version="1.1"
   id="svg1"
   xmlns:inkscape="http://www.inkscape.org/namespaces/inkscape"
   xmlns:sodipodi="http://sodipodi.sourceforge.net/DTD/sodipodi-0.dtd"
   xmlns="http://www.w3.org/2000/svg"
   xmlns:svg="http://www.w3.org/2000/svg">
  <sodipodi:namedview
     id="namedview1"
     pagecolor="#ffffff"
     bordercolor="#000000"
     borderopacity="0.25"
     inkscape:showpageshadow="2"
     inkscape:pageopacity="0.0"
     inkscape:pagecheckerboard="0"
     inkscape:deskcolor="#d1d1d1"
     inkscape:document-units="mm" />
  <defs
     id="defs1">
    <linearGradient
       x1="0"
       y1="0"
       x2="1"
       y2="0"
       gradientUnits="userSpaceOnUse"
       gradientTransform="matrix(0,-224.121,-142.148,0,158.418,704.527)"
       spreadMethod="pad"
       id="linearGradient12">
      <stop
         style="stop-opacity:1;stop-color:#6ea41b"
         offset="0"
         id="stop11" />
      <stop
         style="stop-opacity:1;stop-color:#b5dc17"
         offset="1"
         id="stop12" />
    </linearGradient>
    <clipPath
       clipPathUnits="userSpaceOnUse"
       id="clipPath12">
      <path
         d="m 87.6602,704.527 c -30.6524,0 -51.3907,-21.984 -51.3907,-50.781 V 532.434 c 0,-40.266 27.8555,-52.024 52.0078,-52.024 28.1677,0 50.1407,23.82 50.1407,51.067 v 13.621 h -31.566 v -10.821 c 0,-17.332 -11.1489,-22.285 -19.8207,-22.285 -14.2344,0 -19.1875,9.914 -19.1875,22.586 v 112.68 c 0,14.867 3.7148,25.687 19.5,25.687 12.0742,0 19.5082,-10.535 19.5082,-22.91 v -10.512 h 31.566 v 12.375 c 0,30.645 -21.664,52.629 -50.7578,52.629"
         transform="translate(0,2.5000001e-5)"
         id="path12" />
    </clipPath>
    <linearGradient
       x1="0"
       y1="0"
       x2="1"
       y2="0"
       gradientUnits="userSpaceOnUse"
       gradientTransform="matrix(0,-220.391,-158.247,0,350.332,702.661)"
       spreadMethod="pad"
       id="linearGradient14">
      <stop
         style="stop-opacity:1;stop-color:#6ea41b"
         offset="0"
         id="stop13" />
      <stop
         style="stop-opacity:1;stop-color:#b5dc17"
         offset="1"
         id="stop14" />
    </linearGradient>
    <clipPath
       clipPathUnits="userSpaceOnUse"
       id="clipPath14">
      <path
         d="m 271.523,615.055 h -0.617 L 245.523,702.66 H 212.086 L 255.43,575.43 v -93.153 h 31.574 v 93.153 l 43.328,127.23 h -33.434 l -25.375,-87.605"
         transform="translate(0,2.5000001e-5)"
         id="path14" />
    </clipPath>
    <linearGradient
       x1="0"
       y1="0"
       x2="1"
       y2="0"
       gradientUnits="userSpaceOnUse"
       gradientTransform="matrix(0,-220.391,-142.139,0,530.166,702.661)"
       spreadMethod="pad"
       id="linearGradient16">
      <stop
         style="stop-opacity:1;stop-color:#6ea41b"
         offset="0"
         id="stop15" />
      <stop
         style="stop-opacity:1;stop-color:#b5dc17"
         offset="1"
         id="stop16" />
    </linearGradient>
    <clipPath
       clipPathUnits="userSpaceOnUse"
       id="clipPath16">
      <path
         d="M 454.145,702.66 H 408.027 V 482.277 h 43.024 c 40.863,0 59.113,21.668 59.113,60.047 v 12.375 c 0,22.918 -6.805,36.219 -21.656,43.332 13.922,8.668 21.656,17.336 21.656,40.871 v 8.043 c 0,28.778 -15.164,55.715 -56.019,55.715 z m -0.926,-188.801 h -13.621 v 70.555 h 13.933 c 22.899,0 26.93,-11.445 26.93,-33.426 0,-21.664 -1.863,-37.129 -27.242,-37.129 z m 0.621,98.418 h -14.242 v 60.668 h 13.004 c 20.738,0 27.859,-10.203 27.859,-29.711 0,-20.132 -5.574,-30.957 -26.621,-30.957"
         transform="translate(0,2.5000001e-5)"
         id="path16" />
    </clipPath>
    <linearGradient
       x1="0"
       y1="0"
       x2="1"
       y2="0"
       gradientUnits="userSpaceOnUse"
       gradientTransform="matrix(0,-220.391,-134.102,0,715.898,702.661)"
       spreadMethod="pad"
       id="linearGradient18">
      <stop
         style="stop-opacity:1;stop-color:#6ea41b"
         offset="0"
         id="stop17" />
      <stop
         style="stop-opacity:1;stop-color:#b5dc17"
         offset="1"
         id="stop18" />
    </linearGradient>
    <clipPath
       clipPathUnits="userSpaceOnUse"
       id="clipPath18">
      <path
         d="m 601.797,482.277 h 94.101 v 31.582 h -62.531 v 64.688 h 54.481 v 29.707 h -54.481 v 64.691 h 62.531 V 702.66 H 601.797 V 482.277"
         transform="translate(0,2.5000001e-5)"
         id="path18" />
    </clipPath>
    <linearGradient
       x1="0"
       y1="0"
       x2="1"
       y2="0"
       gradientUnits="userSpaceOnUse"
       gradientTransform="matrix(0,-220.391,-153.286,0,911.528,702.661)"
       spreadMethod="pad"
       id="linearGradient20">
      <stop
         style="stop-opacity:1;stop-color:#6ea41b"
         offset="0"
         id="stop19" />
      <stop
         style="stop-opacity:1;stop-color:#b5dc17"
         offset="1"
         id="stop20" />
    </linearGradient>
    <clipPath
       clipPathUnits="userSpaceOnUse"
       id="clipPath20">
      <path
         d="m 884.719,637.969 c 0,42.711 -18.258,64.691 -55.715,64.691 H 778.242 V 482.277 h 31.567 v 94.09 h 18.882 l 29.411,-94.09 h 33.425 L 857.48,582.871 c 20.122,11.137 27.239,29.719 27.239,55.098 z M 827.77,604.234 h -17.961 v 68.711 h 16.406 c 23.219,0 26.933,-12.066 26.933,-34.355 0,-21.977 -3.414,-34.356 -25.378,-34.356"
         transform="translate(0,2.5000001e-5)"
         id="path20" />
    </clipPath>
    <linearGradient
       x1="0"
       y1="0"
       x2="1"
       y2="0"
       gradientUnits="userSpaceOnUse"
       gradientTransform="matrix(0,-224.121,-145.869,0,1693.41,704.527)"
       spreadMethod="pad"
       id="linearGradient22">
      <stop
         style="stop-opacity:1;stop-color:#05233f"
         offset="0"
         id="stop21" />
      <stop
         style="stop-opacity:1;stop-color:#61849c"
         offset="1"
         id="stop22" />
    </linearGradient>
    <clipPath
       clipPathUnits="userSpaceOnUse"
       id="clipPath22">
      <path
         d="m 1620.49,704.527 c -25.7,0 -52.95,-17.961 -52.95,-53.871 V 534.277 c 0,-35.91 27.25,-53.867 52.95,-53.867 25.68,0 52.92,17.957 52.92,53.867 v 116.379 c 0,35.91 -27.24,53.871 -52.92,53.871 z m 21.34,-170.25 c 0,-15.183 -9.89,-22.285 -21.34,-22.285 -11.47,0 -21.36,7.102 -21.36,22.285 v 116.379 c 0,15.18 9.89,22.289 21.36,22.289 11.45,0 21.34,-7.109 21.34,-22.289 V 534.277"
         transform="translate(0,2.5000001e-5)"
         id="path22" />
    </clipPath>
    <linearGradient
       x1="0"
       y1="0"
       x2="1"
       y2="0"
       gradientUnits="userSpaceOnUse"
       gradientTransform="matrix(0,-220.391,-142.158,0,1885.35,702.661)"
       spreadMethod="pad"
       id="linearGradient24">
      <stop
         style="stop-opacity:1;stop-color:#05233f"
         offset="0"
         id="stop23" />
      <stop
         style="stop-opacity:1;stop-color:#61849c"
         offset="1"
         id="stop24" />
    </linearGradient>
    <clipPath
       clipPathUnits="userSpaceOnUse"
       id="clipPath24">
      <path
         d="m 1809.3,702.66 h -46.11 V 482.277 h 43.02 c 40.86,0 59.14,21.668 59.14,60.047 v 12.375 c 0,22.918 -6.82,36.219 -21.67,43.332 13.91,8.668 21.67,17.336 21.67,40.871 v 8.043 c 0,28.778 -15.18,55.715 -56.05,55.715 z m -0.92,-188.801 h -13.62 v 70.555 h 13.92 c 22.92,0 26.94,-11.445 26.94,-33.426 0,-21.664 -1.85,-37.129 -27.24,-37.129 z m 0.62,98.418 h -14.24 v 60.668 h 12.99 c 20.75,0 27.87,-10.203 27.87,-29.711 0,-20.132 -5.58,-30.957 -26.62,-30.957"
         transform="translate(0,2.5000001e-5)"
         id="path24" />
    </clipPath>
    <linearGradient
       x1="0"
       y1="0"
       x2="1"
       y2="0"
       gradientUnits="userSpaceOnUse"
       gradientTransform="matrix(0,-220.391,-134.111,0,2071.05,702.661)"
       spreadMethod="pad"
       id="linearGradient26">
      <stop
         style="stop-opacity:1;stop-color:#05233f"
         offset="0"
         id="stop25" />
      <stop
         style="stop-opacity:1;stop-color:#61849c"
         offset="1"
         id="stop26" />
    </linearGradient>
    <clipPath
       clipPathUnits="userSpaceOnUse"
       id="clipPath26">
      <path
         d="m 1988.52,702.66 h -31.58 V 482.277 h 94.11 v 31.582 h -62.53 V 702.66"
         transform="translate(0,2.5000001e-5)"
         id="path26" />
    </clipPath>
    <linearGradient
       x1="0"
       y1="0"
       x2="1"
       y2="0"
       gradientUnits="userSpaceOnUse"
       gradientTransform="matrix(0,-220.391,-71.572,0,2185.89,702.661)"
       spreadMethod="pad"
       id="linearGradient28">
      <stop
         style="stop-opacity:1;stop-color:#05233f"
         offset="0"
         id="stop27" />
      <stop
         style="stop-opacity:1;stop-color:#61849c"
         offset="1"
         id="stop28" />
    </linearGradient>
    <clipPath
       clipPathUnits="userSpaceOnUse"
       id="clipPath28">
      <path
         d="m 2134.32,482.277 h 31.5742 V 702.66 H 2134.32 Z"
         transform="translate(0,2.5000001e-5)"
         id="path28" />
    </clipPath>
    <linearGradient
       x1="0"
       y1="0"
       x2="1"
       y2="0"
       gradientUnits="userSpaceOnUse"
       gradientTransform="matrix(0,-220.391,-157.93,0,2385.54,702.661)"
       spreadMethod="pad"
       id="linearGradient30">
      <stop
         style="stop-opacity:1;stop-color:#05233f"
         offset="0"
         id="stop29" />
      <stop
         style="stop-opacity:1;stop-color:#61849c"
         offset="1"
         id="stop30" />
    </linearGradient>
    <clipPath
       clipPathUnits="userSpaceOnUse"
       id="clipPath30">
      <path
         d="m 2306.73,548.809 h -0.62 l -25.07,153.851 h -33.43 l 44.87,-220.383 h 27.87 l 45.19,220.383 h -33.43 l -25.38,-153.851"
         transform="translate(0,2.5000001e-5)"
         id="path30" />
    </clipPath>
    <linearGradient
       x1="0"
       y1="0"
       x2="1"
       y2="0"
       gradientUnits="userSpaceOnUse"
       gradientTransform="matrix(0,-220.391,-71.563,0,2498.82,702.661)"
       spreadMethod="pad"
       id="linearGradient32">
      <stop
         style="stop-opacity:1;stop-color:#05233f"
         offset="0"
         id="stop31" />
      <stop
         style="stop-opacity:1;stop-color:#61849c"
         offset="1"
         id="stop32" />
    </linearGradient>
    <clipPath
       clipPathUnits="userSpaceOnUse"
       id="clipPath32">
      <path
         d="m 2447.26,482.277 h 31.5625 V 702.66 H 2447.26 Z"
         transform="translate(0,2.5000001e-5)"
         id="path32" />
    </clipPath>
    <linearGradient
       x1="0"
       y1="0"
       x2="1"
       y2="0"
       gradientUnits="userSpaceOnUse"
       gradientTransform="matrix(0,-224.121,-145.869,0,2695.39,704.527)"
       spreadMethod="pad"
       id="linearGradient34">
      <stop
         style="stop-opacity:1;stop-color:#05233f"
         offset="0"
         id="stop33" />
      <stop
         style="stop-opacity:1;stop-color:#61849c"
         offset="1"
         id="stop34" />
    </linearGradient>
    <clipPath
       clipPathUnits="userSpaceOnUse"
       id="clipPath34">
      <path
         d="m 2675.39,650.656 c 0,35.91 -27.24,53.871 -52.93,53.871 -25.68,0 -52.93,-17.961 -52.93,-53.871 V 534.277 c 0,-35.91 27.25,-53.867 52.93,-53.867 25.69,0 52.93,17.957 52.93,53.867 z m -31.56,-116.379 c 0,-15.183 -9.91,-22.285 -21.37,-22.285 -11.44,0 -21.35,7.102 -21.35,22.285 v 116.379 c 0,15.18 9.91,22.289 21.35,22.289 11.46,0 21.37,-7.109 21.37,-22.289 V 534.277"
         transform="translate(0,2.5000001e-5)"
         id="path34" />
    </clipPath>
    <linearGradient
       x1="0"
       y1="0"
       x2="1"
       y2="0"
       gradientUnits="userSpaceOnUse"
       gradientTransform="matrix(0,-220.391,-150.186,0,2894.11,702.661)"
       spreadMethod="pad"
       id="linearGradient36">
      <stop
         style="stop-opacity:1;stop-color:#05233f"
         offset="0"
         id="stop35" />
      <stop
         style="stop-opacity:1;stop-color:#61849c"
         offset="1"
         id="stop36" />
    </linearGradient>
    <clipPath
       clipPathUnits="userSpaceOnUse"
       id="clipPath36">
      <path
         d="m 2874.11,702.66 h -31.57 V 569.855 h -0.62 l -47.67,132.805 h -30.33 V 482.277 h 31.56 v 132.469 h 0.63 l 48.27,-132.469 h 29.73 V 702.66"
         transform="translate(0,2.5000001e-5)"
         id="path36" />
    </clipPath>
    <linearGradient
       x1="0"
       y1="0"
       x2="1"
       y2="0"
       gradientUnits="userSpaceOnUse"
       gradientTransform="matrix(161.011,0,0,-366.362,1007.72,828.394)"
       spreadMethod="pad"
       id="linearGradient46">
      <stop
         style="stop-opacity:1;stop-color:#05233f"
         offset="0"
         id="stop45" />
      <stop
         style="stop-opacity:1;stop-color:#61849c"
         offset="1"
         id="stop46" />
    </linearGradient>
    <clipPath
       clipPathUnits="userSpaceOnUse"
       id="clipPath46">
      <path
         d="m 1168.73,482.031 c -66.09,42.649 -109.85,116.914 -109.85,201.426 0,45.777 12.86,88.578 35.13,124.938 -44.08,-35.114 -75.49,-85.426 -86.29,-143.028 16.22,-86.441 78.83,-156.488 161.01,-183.336"
         transform="translate(0,2.5000001e-5)"
         id="path46" />
    </clipPath>
    <linearGradient
       x1="0"
       y1="0"
       x2="1"
       y2="0"
       gradientUnits="userSpaceOnUse"
       gradientTransform="matrix(174.272,0,0,-169.102,1018.84,557.129)"
       spreadMethod="pad"
       id="linearGradient48">
      <stop
         style="stop-opacity:1;stop-color:#05233f"
         offset="0"
         id="stop47" />
      <stop
         style="stop-opacity:1;stop-color:#61849c"
         offset="1"
         id="stop48" />
    </linearGradient>
    <clipPath
       clipPathUnits="userSpaceOnUse"
       id="clipPath48">
      <path
         d="m 1126.79,465.098 c -43.53,14.148 -80.25,39.609 -107.95,72.031 19.77,-52.762 57.93,-98.184 109.37,-126.277 21.89,-2.825 43.7,-2.551 64.9,0.535 -3.19,14.074 -6.04,28.269 -8.56,42.558 -19.23,1.328 -38.59,4.934 -57.76,11.153"
         transform="translate(0,2.5000001e-5)"
         id="path48" />
    </clipPath>
    <linearGradient
       x1="0"
       y1="0"
       x2="1"
       y2="0"
       gradientUnits="userSpaceOnUse"
       gradientTransform="matrix(116.87,0,0,-245.2,1087.94,874.014)"
       spreadMethod="pad"
       id="linearGradient50">
      <stop
         style="stop-opacity:1;stop-color:#05233f"
         offset="0"
         id="stop49" />
      <stop
         style="stop-opacity:1;stop-color:#61849c"
         offset="1"
         id="stop50" />
    </linearGradient>
    <clipPath
       clipPathUnits="userSpaceOnUse"
       id="clipPath50">
      <path
         d="m 1188.8,788.414 c 4.51,22.176 9.89,44.047 16.01,65.602 -72.55,-43.243 -116.74,-121.735 -116.87,-205.203 15,56.621 50.52,106.847 100.86,139.601"
         transform="translate(0,2.5000001e-5)"
         id="path50" />
    </clipPath>
    <linearGradient
       x1="0"
       y1="0"
       x2="1"
       y2="0"
       gradientUnits="userSpaceOnUse"
       gradientTransform="matrix(175.786,0,0,-347.939,1267.67,709.746)"
       spreadMethod="pad"
       id="linearGradient52">
      <stop
         style="stop-opacity:1;stop-color:#6ea41b"
         offset="0"
         id="stop51" />
      <stop
         style="stop-opacity:1;stop-color:#b5dc17"
         offset="1"
         id="stop52" />
    </linearGradient>
    <clipPath
       clipPathUnits="userSpaceOnUse"
       id="clipPath52">
      <path
         d="m 1267.66,381.809 c 56.3,2.488 111.3,24.734 153.9,64.976 37.68,79.465 28.21,172.961 -22.5,242.961 28.4,-73.336 20.14,-159.16 -29.54,-227.508 -26.9,-37.05 -62.45,-64.121 -101.86,-80.429"
         transform="translate(0,2.5000001e-5)"
         id="path52" />
    </clipPath>
    <linearGradient
       x1="0"
       y1="0"
       x2="1"
       y2="0"
       gradientUnits="userSpaceOnUse"
       gradientTransform="matrix(311.021,0,0,-1259.36,1184.83,1239.36)"
       spreadMethod="pad"
       id="linearGradient54">
      <stop
         style="stop-opacity:1;stop-color:#6ea41b"
         offset="0"
         id="stop53" />
      <stop
         style="stop-opacity:1;stop-color:#b5dc17"
         offset="1"
         id="stop54" />
    </linearGradient>
    <clipPath
       clipPathUnits="userSpaceOnUse"
       id="clipPath54">
      <path
         d="m 1240.25,778.5 c 1.75,10.801 3.79,21.465 5.86,32.141 4.44,1.726 8.93,3.39 13.52,4.886 43.55,14.129 88.21,15.129 129.69,5.196 -38.82,25.648 -84.86,39.648 -132.43,39.605 32.7,133.09 90.82,254.912 168.3,359.032 -95.44,-102.29 -167.04,-227.036 -206.31,-365.344 -6.12,-21.555 -11.51,-43.426 -16.01,-65.602 -11.74,-57.754 -18.03,-117.516 -18.03,-178.734 0,-53.137 4.87,-105.141 13.78,-155.735 2.52,-14.289 5.37,-28.484 8.56,-42.558 C 1242.73,254.68 1319.29,113.535 1425.19,0 c -89.14,119.797 -152.45,263.066 -181.13,419.922 48.52,15.168 91.76,45.461 122.33,87.394 -36.35,-29.589 -80.97,-48.086 -128.09,-52.726 -7.48,50.519 -11.55,102.265 -11.55,155.09 0,57.175 4.59,113.175 13.33,167.625 77.07,2.824 154.12,-31.426 202.84,-98.516 26.91,-37.039 41.65,-79.199 45.03,-121.738 15.01,54.316 10.84,113.496 -14.28,166.457 -62.72,59.285 -152.34,79.398 -233.42,54.992"
         transform="translate(0,2.5000001e-5)"
         id="path54" />
    </clipPath>
  </defs>
  <g
     inkscape:label="Layer 1"
     inkscape:groupmode="layer"
     id="layer1"
     transform="translate(-1.5089279,-1.1809601)">
    <path
       id="path11"
       d="m 87.6602,704.527 c -30.6524,0 -51.3907,-21.984 -51.3907,-50.781 V 532.434 c 0,-40.266 27.8555,-52.024 52.0078,-52.024 28.1677,0 50.1407,23.82 50.1407,51.067 v 13.621 h -31.566 v -10.821 c 0,-17.332 -11.1489,-22.285 -19.8207,-22.285 -14.2344,0 -19.1875,9.914 -19.1875,22.586 v 112.68 c 0,14.867 3.7148,25.687 19.5,25.687 12.0742,0 19.5082,-10.535 19.5082,-22.91 v -10.512 h 31.566 v 12.375 c 0,30.645 -21.664,52.629 -50.7578,52.629"
       style="fill:url(#linearGradient12);fill-opacity:1;fill-rule:nonzero;stroke:none"
       transform="matrix(0.03527778,0,0,-0.03527778,0.22942041,44.197274)"
       clip-path="url(#clipPath12)" />
    <path
       id="path13"
       d="m 271.523,615.055 h -0.617 L 245.523,702.66 H 212.086 L 255.43,575.43 v -93.153 h 31.574 v 93.153 l 43.328,127.23 h -33.434 l -25.375,-87.605"
       style="fill:url(#linearGradient14);fill-opacity:1;fill-rule:nonzero;stroke:none"
       transform="matrix(0.03527778,0,0,-0.03527778,0.22942041,44.197274)"
       clip-path="url(#clipPath14)" />
    <path
       id="path15"
       d="M 454.145,702.66 H 408.027 V 482.277 h 43.024 c 40.863,0 59.113,21.668 59.113,60.047 v 12.375 c 0,22.918 -6.805,36.219 -21.656,43.332 13.922,8.668 21.656,17.336 21.656,40.871 v 8.043 c 0,28.778 -15.164,55.715 -56.019,55.715 z m -0.926,-188.801 h -13.621 v 70.555 h 13.933 c 22.899,0 26.93,-11.445 26.93,-33.426 0,-21.664 -1.863,-37.129 -27.242,-37.129 z m 0.621,98.418 h -14.242 v 60.668 h 13.004 c 20.738,0 27.859,-10.203 27.859,-29.711 0,-20.132 -5.574,-30.957 -26.621,-30.957"
       style="fill:url(#linearGradient16);fill-opacity:1;fill-rule:nonzero;stroke:none"
       transform="matrix(0.03527778,0,0,-0.03527778,0.22942041,44.197274)"
       clip-path="url(#clipPath16)" />
    <path
       id="path17"
       d="m 601.797,482.277 h 94.101 v 31.582 h -62.531 v 64.688 h 54.481 v 29.707 h -54.481 v 64.691 h 62.531 V 702.66 H 601.797 V 482.277"
       style="fill:url(#linearGradient18);fill-opacity:1;fill-rule:nonzero;stroke:none"
       transform="matrix(0.03527778,0,0,-0.03527778,0.22942041,44.197274)"
       clip-path="url(#clipPath18)" />
    <path
       id="path19"
       d="m 884.719,637.969 c 0,42.711 -18.258,64.691 -55.715,64.691 H 778.242 V 482.277 h 31.567 v 94.09 h 18.882 l 29.411,-94.09 h 33.425 L 857.48,582.871 c 20.122,11.137 27.239,29.719 27.239,55.098 z M 827.77,604.234 h -17.961 v 68.711 h 16.406 c 23.219,0 26.933,-12.066 26.933,-34.355 0,-21.977 -3.414,-34.356 -25.378,-34.356"
       style="fill:url(#linearGradient20);fill-opacity:1;fill-rule:nonzero;stroke:none"
       transform="matrix(0.03527778,0,0,-0.03527778,0.22942041,44.197274)"
       clip-path="url(#clipPath20)" />
    <path
       id="path21"
       d="m 1620.49,704.527 c -25.7,0 -52.95,-17.961 -52.95,-53.871 V 534.277 c 0,-35.91 27.25,-53.867 52.95,-53.867 25.68,0 52.92,17.957 52.92,53.867 v 116.379 c 0,35.91 -27.24,53.871 -52.92,53.871 z m 21.34,-170.25 c 0,-15.183 -9.89,-22.285 -21.34,-22.285 -11.47,0 -21.36,7.102 -21.36,22.285 v 116.379 c 0,15.18 9.89,22.289 21.36,22.289 11.45,0 21.34,-7.109 21.34,-22.289 V 534.277"
       style="fill:url(#linearGradient22);fill-opacity:1;fill-rule:nonzero;stroke:none"
       transform="matrix(0.03527778,0,0,-0.03527778,0.22942041,44.197274)"
       clip-path="url(#clipPath22)" />
    <path
       id="path23"
       d="m 1809.3,702.66 h -46.11 V 482.277 h 43.02 c 40.86,0 59.14,21.668 59.14,60.047 v 12.375 c 0,22.918 -6.82,36.219 -21.67,43.332 13.91,8.668 21.67,17.336 21.67,40.871 v 8.043 c 0,28.778 -15.18,55.715 -56.05,55.715 z m -0.92,-188.801 h -13.62 v 70.555 h 13.92 c 22.92,0 26.94,-11.445 26.94,-33.426 0,-21.664 -1.85,-37.129 -27.24,-37.129 z m 0.62,98.418 h -14.24 v 60.668 h 12.99 c 20.75,0 27.87,-10.203 27.87,-29.711 0,-20.132 -5.58,-30.957 -26.62,-30.957"
       style="fill:url(#linearGradient24);fill-opacity:1;fill-rule:nonzero;stroke:none"
       transform="matrix(0.03527778,0,0,-0.03527778,0.22942041,44.197274)"
       clip-path="url(#clipPath24)" />
    <path
       id="path25"
       d="m 1988.52,702.66 h -31.58 V 482.277 h 94.11 v 31.582 h -62.53 V 702.66"
       style="fill:url(#linearGradient26);fill-opacity:1;fill-rule:nonzero;stroke:none"
       transform="matrix(0.03527778,0,0,-0.03527778,0.22942041,44.197274)"
       clip-path="url(#clipPath26)" />
    <path
       id="path27"
       d="m 2134.32,482.277 h 31.5742 V 702.66 H 2134.32 Z"
       style="fill:url(#linearGradient28);fill-opacity:1;fill-rule:nonzero;stroke:none"
       transform="matrix(0.03527778,0,0,-0.03527778,0.22942041,44.197274)"
       clip-path="url(#clipPath28)" />
    <path
       id="path29"
       d="m 2306.73,548.809 h -0.62 l -25.07,153.851 h -33.43 l 44.87,-220.383 h 27.87 l 45.19,220.383 h -33.43 l -25.38,-153.851"
       style="fill:url(#linearGradient30);fill-opacity:1;fill-rule:nonzero;stroke:none"
       transform="matrix(0.03527778,0,0,-0.03527778,0.22942041,44.197274)"
       clip-path="url(#clipPath30)" />
    <path
       id="path31"
       d="m 2447.26,482.277 h 31.5625 V 702.66 H 2447.26 Z"
       style="fill:url(#linearGradient32);fill-opacity:1;fill-rule:nonzero;stroke:none"
       transform="matrix(0.03527778,0,0,-0.03527778,0.22942041,44.197274)"
       clip-path="url(#clipPath32)" />
    <path
       id="path33"
       d="m 2675.39,650.656 c 0,35.91 -27.24,53.871 -52.93,53.871 -25.68,0 -52.93,-17.961 -52.93,-53.871 V 534.277 c 0,-35.91 27.25,-53.867 52.93,-53.867 25.69,0 52.93,17.957 52.93,53.867 z m -31.56,-116.379 c 0,-15.183 -9.91,-22.285 -21.37,-22.285 -11.44,0 -21.35,7.102 -21.35,22.285 v 116.379 c 0,15.18 9.91,22.289 21.35,22.289 11.46,0 21.37,-7.109 21.37,-22.289 V 534.277"
       style="fill:url(#linearGradient34);fill-opacity:1;fill-rule:nonzero;stroke:none"
       transform="matrix(0.03527778,0,0,-0.03527778,0.22942041,44.197274)"
       clip-path="url(#clipPath34)" />
    <path
       id="path35"
       d="m 2874.11,702.66 h -31.57 V 569.855 h -0.62 l -47.67,132.805 h -30.33 V 482.277 h 31.56 v 132.469 h 0.63 l 48.27,-132.469 h 29.73 V 702.66"
       style="fill:url(#linearGradient36);fill-opacity:1;fill-rule:nonzero;stroke:none"
       transform="matrix(0.03527778,0,0,-0.03527778,0.22942041,44.197274)"
       clip-path="url(#clipPath36)" />
    <path
       id="path45"
       d="m 1168.73,482.031 c -66.09,42.649 -109.85,116.914 -109.85,201.426 0,45.777 12.86,88.578 35.13,124.938 -44.08,-35.114 -75.49,-85.426 -86.29,-143.028 16.22,-86.441 78.83,-156.488 161.01,-183.336"
       style="fill:url(#linearGradient46);fill-opacity:1;fill-rule:nonzero;stroke:none"
       transform="matrix(0.03527778,0,0,-0.03527778,0.22942041,44.197274)"
       clip-path="url(#clipPath46)" />
    <path
       id="path47"
       d="m 1126.79,465.098 c -43.53,14.148 -80.25,39.609 -107.95,72.031 19.77,-52.762 57.93,-98.184 109.37,-126.277 21.89,-2.825 43.7,-2.551 64.9,0.535 -3.19,14.074 -6.04,28.269 -8.56,42.558 -19.23,1.328 -38.59,4.934 -57.76,11.153"
       style="fill:url(#linearGradient48);fill-opacity:1;fill-rule:nonzero;stroke:none"
       transform="matrix(0.03527778,0,0,-0.03527778,0.22942041,44.197274)"
       clip-path="url(#clipPath48)" />
    <path
       id="path49"
       d="m 1188.8,788.414 c 4.51,22.176 9.89,44.047 16.01,65.602 -72.55,-43.243 -116.74,-121.735 -116.87,-205.203 15,56.621 50.52,106.847 100.86,139.601"
       style="fill:url(#linearGradient50);fill-opacity:1;fill-rule:nonzero;stroke:none"
       transform="matrix(0.03527778,0,0,-0.03527778,0.22942041,44.197274)"
       clip-path="url(#clipPath50)" />
    <path
       id="path51"
       d="m 1267.66,381.809 c 56.3,2.488 111.3,24.734 153.9,64.976 37.68,79.465 28.21,172.961 -22.5,242.961 28.4,-73.336 20.14,-159.16 -29.54,-227.508 -26.9,-37.05 -62.45,-64.121 -101.86,-80.429"
       style="fill:url(#linearGradient52);fill-opacity:1;fill-rule:nonzero;stroke:none"
       transform="matrix(0.03527778,0,0,-0.03527778,0.22942041,44.197274)"
       clip-path="url(#clipPath52)" />
    <path
       id="path53"
       d="m 1240.25,778.5 c 1.75,10.801 3.79,21.465 5.86,32.141 4.44,1.726 8.93,3.39 13.52,4.886 43.55,14.129 88.21,15.129 129.69,5.196 -38.82,25.648 -84.86,39.648 -132.43,39.605 32.7,133.09 90.82,254.912 168.3,359.032 -95.44,-102.29 -167.04,-227.036 -206.31,-365.344 -6.12,-21.555 -11.51,-43.426 -16.01,-65.602 -11.74,-57.754 -18.03,-117.516 -18.03,-178.734 0,-53.137 4.87,-105.141 13.78,-155.735 2.52,-14.289 5.37,-28.484 8.56,-42.558 C 1242.73,254.68 1319.29,113.535 1425.19,0 c -89.14,119.797 -152.45,263.066 -181.13,419.922 48.52,15.168 91.76,45.461 122.33,87.394 -36.35,-29.589 -80.97,-48.086 -128.09,-52.726 -7.48,50.519 -11.55,102.265 -11.55,155.09 0,57.175 4.59,113.175 13.33,167.625 77.07,2.824 154.12,-31.426 202.84,-98.516 26.91,-37.039 41.65,-79.199 45.03,-121.738 15.01,54.316 10.84,113.496 -14.28,166.457 -62.72,59.285 -152.34,79.398 -233.42,54.992"
       style="fill:url(#linearGradient54);fill-opacity:1;fill-rule:nonzero;stroke:none"
       transform="matrix(0.03527778,0,0,-0.03527778,0.22942041,44.197274)"
       clip-path="url(#clipPath54)" />
  </g>
</svg>
